<?xml version="1.0" encoding="utf-8"?>
<svg viewBox="0 0 500 500" xmlns="http://www.w3.org/2000/svg" xmlns:bx="https://boxy-svg.com">
  <path style="stroke-width: 36px; fill: none; stroke: rgb(251, 107, 29);" d="M 246.773 445.287 L 246.212 283.67 L 91.891 203.423" transform="matrix(1.0000000000000002, 0, 0, 1.0000000000000002, 0, -1.7763568394002505e-15)"/>
  <path d="M 226.705 67.576 Q 246.493 55.992 266.281 67.576 L 391.603 140.945 Q 411.391 152.529 411.391 175.698 L 411.391 322.434 Q 411.391 345.603 391.603 357.187 L 266.281 430.556 Q 246.493 442.14 226.705 430.556 L 101.383 357.187 Q 81.595 345.603 81.595 322.434 L 81.595 175.698 Q 81.595 152.529 101.383 140.945 Z" style="fill: none; stroke: rgb(251, 107, 29); stroke-width: 36px;" transform="matrix(1.0000000000000002, 0, 0, 1.0000000000000002, 0, -1.7763568394002505e-15)" bx:shape="n-gon 246.493 249.066 190.408 193.074 6 0.12 1@3df185a8"/>
  <path style="fill: rgb(216, 216, 216); stroke-width: 36px; stroke: rgb(251, 107, 29);" d="M 250.702 281.425 L 401.656 199.495" transform="matrix(1.0000000000000002, 0, 0, 1.0000000000000002, 0, -1.7763568394002505e-15)"/>
  <path style="fill-opacity: 0; fill-rule: evenodd; stroke-linecap: round; stroke-linejoin: round; stroke-width: 36px; fill: none; stroke: rgb(77, 155, 230);" d="M 81.791 333.614 L 80.669 156.846 L 245.651 246.072 L 411.757 153.479 L 411.195 334.176" transform="matrix(1.0000000000000002, 0, 0, 1.0000000000000002, 0, -1.7763568394002505e-15)"/>
</svg>