<svg width="201" height="186" viewBox="0 0 201 186" fill="none" xmlns="http://www.w3.org/2000/svg">
<path d="M0.0317023 91.0057C1.5317 145.506 52.0317 168.006 98.5317 172.504L114.032 171.004L130.532 168.006L177.84 182.627C181.382 183.722 184.842 180.716 184.253 177.055L178.532 141.504C185.032 132.171 201.747 117.987 200.532 79.5057C199.032 32.0042 146.532 -0.49431 98.5317 0.00568993C50.5317 0.50569 -1.4683 36.5057 0.0317023 91.0057Z" fill="black"/>
<path d="M114.032 86.0041C114.032 92.5042 108.532 101.504 100.032 101.504C91.5317 101.504 85.5316 96.0041 85.5317 86.0041C85.5319 79.0041 91.5317 70.5042 99.5317 70.5042C107.532 70.5041 114.032 78.0042 114.032 86.0041Z" fill="#FDFDFD"/>
<path d="M62.0317 86.0041C62.0317 92.5042 56.5318 101.504 48.0317 101.504C39.5317 101.504 33.5316 96.0041 33.5317 86.0041C33.5319 79.0041 39.5317 70.5042 47.5317 70.5042C55.5317 70.5041 62.0317 78.0042 62.0317 86.0041Z" fill="#FDFDFD"/>
<path d="M166.032 86.0041C166.032 92.5042 160.532 101.504 152.032 101.504C143.532 101.504 137.532 96.0041 137.532 86.0041C137.532 79.0041 143.532 70.5042 151.532 70.5042C159.532 70.5041 166.032 78.0042 166.032 86.0041Z" fill="#EAEAEA"/>
</svg>
