<svg width="170" height="173" viewBox="0 0 170 173" fill="none" xmlns="http://www.w3.org/2000/svg">
<path d="M8.33501 104.001C-6.16499 141.505 36.867 168.006 83.3669 172.505L98.867 171.005L115.367 168.006L137.913 160.203C138.303 160.068 138.674 159.886 139.019 159.66L158.335 146.999C164.835 137.665 170.367 120.499 163.367 104.001C187.835 28.9987 131.367 -0.493757 83.3669 0.00624261C35.3669 0.506243 -21.6649 16.0005 8.33501 104.001Z" fill="black"/>
<path d="M140.714 111.664C141.498 112.953 140.122 144.999 84.4782 144.999C28.835 144.999 28.8351 117.22 28.8351 111.664V111.664C28.8352 107.96 39.0914 120.924 84.4782 120.924C129.865 120.924 139.93 110.375 140.714 111.664Z" fill="#FDFDFD"/>
<path d="M156.835 73.9986C156.835 82.1236 132.25 93.9985 120.64 93.9985C109.03 93.9985 100.835 82.7485 100.835 70.2485C100.835 61.4985 109.713 53.9986 120.64 53.9985C131.567 53.9985 156.835 63.9986 156.835 73.9986Z" fill="#EAEAEA"/>
<path d="M11.8351 73.9986C11.8351 82.1236 36.4206 93.9985 48.0304 93.9985C59.6402 93.9985 67.8354 82.7485 67.8351 70.2485C67.835 61.4985 58.9572 53.9986 48.0304 53.9985C37.1035 53.9985 11.8351 63.9986 11.8351 73.9986Z" fill="#EAEAEA"/>
</svg>
